<svg id="Layer_1" data-name="Layer 1" xmlns="http://www.w3.org/2000/svg" xmlns:xlink="http://www.w3.org/1999/xlink" viewBox="0 0 36 36"><defs><style>.cls-1{fill:url(#linear-gradient);}.cls-2{fill:#ed8e55;}</style><linearGradient id="linear-gradient" x1="18" y1="34.84" x2="18" y2="1.16" gradientUnits="userSpaceOnUse"><stop offset="0.3" stop-color="#9a4b00"/><stop offset="0.36" stop-color="#b15d17"/><stop offset="0.49" stop-color="#dc8044"/><stop offset="0.55" stop-color="#ed8e55"/><stop offset="1" stop-color="#bc703e"/></linearGradient></defs><path d="M18,1.16l15,9V25.86l-15,9-15-9V10.14l15-9M18,0l-.52.31-15,9L2,9.59V26.41l.48.29,15,9L18,36l.52-.31,15-9,.48-.29V9.59l-.48-.29-15-9L18,0Z"/><polygon class="cls-1" points="18 1.16 3 10.14 3 25.86 18 34.84 33 25.86 33 10.14 18 1.16"/><path class="cls-2" d="M18,2.89,31.5,11V25L18,33.11,4.5,25V11L18,2.89m0-1.73-15,9V25.86l15,9,15-9V10.14l-15-9Z"/></svg>